<mxfile host="app.diagrams.net" modified="2024-05-27T17:31:49.411Z" agent="Mozilla/5.0 (X11; Linux x86_64; rv:109.0) Gecko/20100101 Firefox/118.0" version="24.4.9" etag="SmLNTph-fBj5D0SNAq7f" type="github">
  <diagram name="Page-1" id="gT5-eO-WMRqwZJ9XiDqQ">
    <mxGraphModel>
      <root>
        <mxCell id="0" />
        <mxCell id="1" parent="0" />
      </root>
    </mxGraphModel>
  </diagram>
</mxfile>
